<svg xmlns="http://www.w3.org/2000/svg"  viewBox="0 0 100 100" width="100px" height="100px"><path d="M 49.998047 8.9980469 C 41.971571 8.9980469 35.443359 15.528211 35.443359 23.554688 C 35.443359 27.759609 37.298643 31.487022 40.15625 34.142578 C 38.176546 35.568425 36.418235 37.041597 34.447266 38.365234 A 1.0001 1.0001 0 0 0 34.005859 39.265625 C 34.068549 40.161603 34.242998 41.352088 34.701172 42.685547 C 35.113997 43.885118 35.634651 44.843739 36.087891 45.552734 A 1.0001 1.0001 0 0 0 36.931641 46.015625 L 41.066406 46.009766 C 41.045456 46.273227 41.029626 46.545817 41.003906 46.833984 A 1.0001 1.0001 0 0 0 41.001953 46.863281 C 40.018883 57.827095 36.408355 61.532114 32.476562 64.705078 C 28.540623 67.88139 24.032267 70.582084 22.484375 78.542969 L 22.478516 78.566406 A 1.0001 1.0001 0 0 0 22.478516 78.574219 C 22.407096 78.944772 22.340477 79.326769 22.28125 79.722656 A 1.0001 1.0001 0 0 0 22.279297 79.730469 C 22.279068 79.732069 22.275398 79.7581 22.267578 79.8125 C 22.150976 80.607714 22.059653 81.450751 21.996094 82.345703 C 21.987294 82.463517 21.981099 82.572654 21.974609 82.671875 A 1.0001 1.0001 0 0 0 21.974609 82.673828 C 21.952909 83.013798 21.935115 83.359498 21.921875 83.710938 C 21.916875 83.834891 21.912373 83.959572 21.908203 84.091797 A 1.0001 1.0001 0 0 0 21.908203 84.09375 C 21.895023 84.553994 21.886719 85.02801 21.886719 85.521484 A 1.0001 1.0001 0 0 0 21.912109 85.75 C 21.912109 85.75 22.004169 86.044036 22.144531 86.259766 C 22.284891 86.475496 22.497685 86.723872 22.818359 86.990234 C 23.459708 87.522959 24.521687 88.129125 26.367188 88.716797 C 30.058187 89.892141 36.913168 91.005859 49.998047 91.005859 C 63.082925 91.005859 69.937906 89.892141 73.628906 88.716797 C 75.474407 88.129125 76.534433 87.522959 77.175781 86.990234 C 77.496456 86.723872 77.711202 86.475496 77.851562 86.259766 C 77.991923 86.044036 78.083984 85.75 78.083984 85.75 A 1.0001 1.0001 0 0 0 78.109375 85.521484 C 78.109885 79.239087 76.968155 75.151022 75.166016 72.185547 C 73.363876 69.220072 70.955753 67.44257 68.650391 65.666016 C 66.345028 63.889461 64.126448 62.117001 62.349609 59.109375 C 60.682464 56.287424 59.45519 52.147624 58.998047 46.017578 L 63.080078 46.023438 A 1.0001 1.0001 0 0 0 63.923828 45.5625 C 64.41589 44.793946 64.907803 43.710458 65.310547 42.537109 C 65.768667 41.203807 65.943169 40.015175 66.005859 39.119141 A 1.0001 1.0001 0 0 0 65.566406 38.21875 C 63.602336 36.899179 61.856952 35.546012 59.923828 34.181641 C 60.000068 34.114031 60.08977 34.039703 60.210938 33.919922 L 60.212891 33.917969 C 60.568272 33.567761 60.912167 33.197434 61.236328 32.804688 L 61.240234 32.800781 C 61.326444 32.696524 61.354228 32.65266 61.320312 32.693359 A 1.0001 1.0001 0 0 0 61.330078 32.681641 C 61.617694 32.32534 61.887406 31.956194 62.140625 31.574219 A 1.0001 1.0001 0 0 0 62.142578 31.572266 C 62.25729 31.398221 62.338372 31.248621 62.40625 31.136719 L 62.408203 31.134766 C 62.579581 30.854933 62.753027 30.561828 62.916016 30.248047 C 63.015056 30.057042 63.096673 29.878795 63.171875 29.71875 C 63.306275 29.43196 63.434147 29.137611 63.552734 28.832031 L 63.552734 28.830078 C 63.625724 28.642784 63.695982 28.453517 63.761719 28.259766 L 63.763672 28.255859 C 63.871227 27.941554 63.960744 27.628267 64.042969 27.322266 C 64.088929 27.150878 64.144774 26.959813 64.193359 26.744141 A 1.0001 1.0001 0 0 0 64.193359 26.742188 C 64.273489 26.382721 64.330364 26.029505 64.380859 25.6875 L 64.380859 25.685547 C 64.400389 25.555754 64.434984 25.387839 64.458984 25.171875 C 64.517334 24.646757 64.552734 24.107824 64.552734 23.554688 C 64.552734 22.967121 64.509514 22.399918 64.445312 21.851562 A 1.0001 1.0001 0 0 0 64.445312 21.849609 C 64.420883 21.64256 64.387418 21.473911 64.367188 21.339844 A 1.0001 1.0001 0 0 0 64.367188 21.337891 C 64.308127 20.953976 64.235901 20.566974 64.144531 20.181641 L 64.144531 20.179688 C 64.101501 19.996914 64.054741 19.817352 64.003906 19.636719 L 64.005859 19.638672 C 63.897515 19.250799 63.772863 18.873874 63.636719 18.505859 A 1.0001 1.0001 0 0 0 63.634766 18.501953 C 63.596596 18.399647 63.551267 18.254866 63.476562 18.072266 C 63.272612 17.571368 63.043898 17.073163 62.777344 16.585938 A 1.0001 1.0001 0 0 0 62.771484 16.574219 C 62.508421 16.093937 62.217506 15.642311 61.914062 15.210938 A 1.0001 1.0001 0 0 0 61.912109 15.208984 C 61.815029 15.071551 61.728049 14.960606 61.658203 14.867188 C 61.416489 14.543482 61.161558 14.228428 60.890625 13.921875 A 1.0001 1.0001 0 0 0 60.888672 13.919922 C 60.790632 13.809631 60.690051 13.695736 60.582031 13.580078 A 1.0001 1.0001 0 0 0 60.578125 13.578125 C 60.280622 13.262231 59.972488 12.963548 59.652344 12.679688 A 1.0001 1.0001 0 0 0 59.650391 12.679688 C 59.602641 12.637448 59.524806 12.559235 59.404297 12.457031 C 56.869048 10.305878 53.582417 8.9980469 49.998047 8.9980469 z M 49.998047 10.998047 C 52.954045 10.998047 55.652497 12.029233 57.796875 13.736328 C 58.751947 15.549052 59.300781 17.60734 59.300781 19.800781 C 59.300781 22.53257 58.463486 25.063304 57.03125 27.158203 A 0.50029176 0.50029176 0 1 0 57.857422 27.722656 C 59.399185 25.467555 60.300781 22.736992 60.300781 19.800781 C 60.300781 18.190144 59.942318 16.690996 59.410156 15.267578 C 59.634596 15.522714 59.849946 15.787646 60.056641 16.064453 C 60.146791 16.185034 60.222383 16.282714 60.279297 16.363281 C 60.5484 16.745975 60.79761 17.133622 61.015625 17.53125 C 61.016311 17.53255 61.016878 17.533956 61.017578 17.535156 A 1.0001 1.0001 0 0 0 61.023438 17.546875 C 61.244883 17.951649 61.442952 18.379069 61.625 18.826172 A 1.0001 1.0001 0 0 0 61.625 18.828125 C 61.65809 18.909015 61.6986 19.035069 61.759766 19.199219 C 61.879621 19.523204 61.986469 19.847654 62.078125 20.175781 A 1.0001 1.0001 0 0 0 62.080078 20.177734 C 62.123068 20.330492 62.162378 20.484029 62.199219 20.640625 A 1.0001 1.0001 0 0 0 62.199219 20.642578 C 62.275639 20.964619 62.337785 21.297165 62.390625 21.640625 C 62.418265 21.823455 62.445474 21.969526 62.458984 22.083984 C 62.516784 22.577629 62.552734 23.066254 62.552734 23.554688 C 62.552734 24.021549 62.522353 24.48629 62.470703 24.951172 C 62.458783 25.058405 62.430844 25.202555 62.402344 25.392578 A 1.0001 1.0001 0 0 0 62.402344 25.394531 C 62.354904 25.71595 62.303964 26.020753 62.240234 26.306641 L 62.242188 26.304688 C 62.208777 26.453014 62.161368 26.618076 62.111328 26.804688 C 62.036068 27.084667 61.956765 27.355608 61.869141 27.611328 A 1.0001 1.0001 0 0 0 61.869141 27.613281 C 61.813491 27.777497 61.753703 27.940654 61.689453 28.105469 A 1.0001 1.0001 0 0 0 61.689453 28.107422 C 61.590223 28.36323 61.480678 28.614464 61.361328 28.869141 C 61.280528 29.041095 61.209585 29.19513 61.140625 29.328125 C 61.010221 29.579048 60.861048 29.830794 60.701172 30.091797 A 1.0001 1.0001 0 0 0 60.699219 30.095703 C 60.603309 30.25361 60.53134 30.381665 60.472656 30.470703 C 60.254312 30.799917 60.02125 31.11879 59.773438 31.425781 C 59.704307 31.510811 59.668124 31.562706 59.699219 31.525391 A 1.0001 1.0001 0 0 0 59.697266 31.529297 C 59.421058 31.864233 59.12127 32.186146 58.806641 32.496094 A 1.0001 1.0001 0 0 0 58.804688 32.498047 C 58.745598 32.556557 58.643459 32.642073 58.507812 32.767578 C 58.275318 32.982708 58.050303 33.183337 57.822266 33.365234 C 57.713938 33.450954 57.664076 33.497603 57.701172 33.46875 A 1.0001 1.0001 0 0 0 57.757812 35.089844 C 59.897864 36.527649 61.746986 37.997161 63.90625 39.488281 C 63.83119 40.185841 63.741502 40.952751 63.419922 41.888672 C 63.124519 42.749294 62.765703 43.452495 62.449219 44.023438 L 58.189453 44.015625 A 1.0001 1.0001 0 0 0 58 44 L 54.685547 44 L 56.283203 39.203125 A 0.50005 0.50005 0 0 0 56.208984 38.744141 L 51.695312 32.759766 A 0.50005 0.50005 0 0 0 51.658203 32.673828 C 52.939736 32.133465 54.174645 31.489563 55.228516 30.613281 A 0.50064718 0.50064718 0 1 0 54.587891 29.84375 C 53.455948 30.784949 52.164339 31.539663 50.757812 32.056641 A 0.50005 0.50005 0 0 0 50.529297 32.824219 L 50.716797 33.076172 A 0.50005 0.50005 0 0 0 50.791016 33.222656 L 55.251953 39.136719 L 53.630859 44 L 42 44 A 1.0001 1.0001 0 0 0 41.869141 44.007812 L 37.550781 44.015625 C 37.22406 43.460316 36.876694 42.863 36.591797 42.035156 C 36.268953 41.09556 36.178222 40.324416 36.103516 39.625 C 38.284945 38.09813 40.128635 36.506669 42.25 35.082031 A 1.0001 1.0001 0 0 0 42.306641 33.460938 C 39.349309 31.161821 37.443359 27.592196 37.443359 23.554688 C 37.443359 16.609163 43.052521 10.998047 49.998047 10.998047 z M 48.554688 12.533203 C 47.323535 12.537303 45.898152 13.019168 44.494141 13.939453 C 43.090082 14.85977 41.964071 16.056391 41.261719 17.283203 C 40.559366 18.510015 40.253377 19.793452 40.671875 20.876953 C 41.090371 21.960448 42.192677 22.504062 43.423828 22.5 C 44.65498 22.4959 46.07841 22.015988 47.482422 21.095703 C 48.886481 20.175387 50.012491 18.978765 50.714844 17.751953 C 51.417196 16.525141 51.723186 15.239751 51.304688 14.15625 C 50.88619 13.072755 49.785839 12.529141 48.554688 12.533203 z M 48.556641 13.533203 C 49.522739 13.530003 50.117543 13.856073 50.373047 14.517578 C 50.628548 15.179077 50.459057 16.185968 49.847656 17.253906 C 49.236259 18.321844 48.210488 19.424082 46.935547 20.259766 C 45.660559 21.09548 44.38602 21.496812 43.419922 21.5 C 42.453823 21.5032 41.85902 21.179083 41.603516 20.517578 C 41.348014 19.856079 41.517506 18.847235 42.128906 17.779297 C 42.740304 16.711359 43.768028 15.611074 45.042969 14.775391 C 46.317957 13.939676 47.590542 13.536391 48.556641 13.533203 z M 43.072266 46 L 56.984375 46 C 57.07566 47.280428 57.20939 48.462868 57.365234 49.59375 C 57.600973 54.066047 58.536955 57.303745 59.908203 59.791016 C 61.710668 63.060457 64.237968 65.010933 66.730469 66.814453 C 67.623543 67.460662 68.500434 68.10324 69.357422 68.767578 C 70.916964 70.035453 72.331166 71.371963 73.457031 73.224609 C 75.005328 75.772379 76.047653 79.406337 76.083984 85.261719 C 76.043354 85.311629 76.022774 85.349849 75.898438 85.453125 C 75.527379 85.761337 74.697109 86.276969 73.021484 86.810547 C 69.670235 87.877702 62.968168 89.005859 49.998047 89.005859 C 37.027925 89.005859 30.325859 87.877702 26.974609 86.810547 C 25.298985 86.276969 24.468714 85.761337 24.097656 85.453125 C 23.959154 85.33808 23.927852 85.28832 23.890625 85.240234 C 23.893325 84.873309 23.898023 84.50945 23.908203 84.154297 L 23.908203 84.152344 C 23.912003 84.0319 23.916905 83.911869 23.921875 83.787109 A 1.0001 1.0001 0 0 0 23.921875 83.785156 C 23.934605 83.447265 23.950463 83.120172 23.970703 82.802734 L 23.970703 82.800781 C 23.978103 82.688006 23.983294 82.584193 23.990234 82.492188 A 1.0001 1.0001 0 0 0 23.990234 82.488281 C 24.050574 81.638598 24.13695 80.843331 24.246094 80.099609 A 1.0001 1.0001 0 0 0 24.246094 80.095703 C 24.246323 80.094103 24.251996 80.066109 24.259766 80.011719 L 24.259766 80.019531 C 24.314246 79.655373 24.375234 79.30269 24.441406 78.958984 L 24.441406 78.953125 L 24.447266 78.929688 A 1.0001 1.0001 0 0 0 24.447266 78.923828 C 24.624306 78.013301 24.839192 77.184969 25.083984 76.425781 C 26.515498 76.958369 32.628551 79.048375 40.367188 78.273438 C 43.976248 77.912212 46.709952 75.310612 48.707031 71.988281 A 0.50026034 0.50026034 0 1 0 47.849609 71.472656 C 45.940689 74.648325 43.452517 76.958569 40.267578 77.277344 C 33.314764 77.973591 27.410759 76.208714 25.408203 75.517578 C 27.211963 70.832072 30.36002 68.983254 33.732422 66.261719 C 37.638388 63.109595 41.601908 58.807072 42.835938 48.494141 C 44.637411 48.6398 46.937565 48.749043 48.888672 49.404297 C 49.974736 49.769037 50.916582 50.292819 51.580078 51.048828 C 52.243574 51.804838 52.654297 52.795495 52.654297 54.212891 C 52.654297 55.09693 52.553329 56.380159 52.332031 57.882812 A 0.50005 0.50005 0 1 0 53.320312 58.027344 C 53.547015 56.487997 53.654297 55.172852 53.654297 54.212891 C 53.654297 52.594786 53.152442 51.325428 52.332031 50.390625 C 51.511621 49.455822 50.401092 48.856088 49.207031 48.455078 C 47.071694 47.737954 44.701663 47.63292 42.947266 47.496094 C 42.963547 47.33134 42.985069 47.179422 43 47.011719 A 1.0001 1.0001 0 0 0 43.003906 46.912109 A 1.0001 1.0001 0 0 0 43.003906 46.910156 C 43.030996 46.604843 43.049806 46.293848 43.072266 46 z M 51.958984 61.900391 A 0.50005 0.50005 0 0 0 51.904297 61.902344 A 0.50005 0.50005 0 0 0 51.453125 62.287109 C 51.086048 63.752451 50.629595 65.271187 50.076172 66.755859 A 0.50028327 0.50028327 0 1 0 51.013672 67.105469 C 51.582249 65.580142 52.048906 64.027909 52.423828 62.53125 A 0.50005 0.50005 0 0 0 51.958984 61.900391 z"/></svg>